<?xml version="1.0" encoding="UTF-8"?>
<!DOCTYPE svg PUBLIC "-//W3C//DTD SVG 1.1//EN" "http://www.w3.org/Graphics/SVG/1.1/DTD/svg11.dtd">
<svg version="1.1" xmlns="http://www.w3.org/2000/svg" xmlns:xlink="http://www.w3.org/1999/xlink" x="0" y="0" width="24" height="24" viewBox="0, 0, 24, 24">
  <g id="Layer_1">
    <path d="M16,8 L16,15 L14,15 Q14,15.211 13.922,15.391 Q13.844,15.57 13.707,15.707 Q13.57,15.844 13.391,15.922 Q13.211,16 13,16 Q12.789,16 12.609,15.922 Q12.43,15.844 12.293,15.707 Q12.156,15.57 12.078,15.391 Q12,15.211 12,15 L4,15 Q4,15.211 3.922,15.391 Q3.844,15.57 3.707,15.707 Q3.57,15.844 3.391,15.922 Q3.211,16 3,16 Q2.789,16 2.609,15.922 Q2.43,15.844 2.293,15.707 Q2.156,15.57 2.078,15.391 Q2,15.211 2,15 L-0,15 L-0,8 L2,8 L2,0.5 Q2,0.297 2.148,0.148 Q2.297,-0 2.5,-0 Q2.703,-0 2.852,0.148 Q3,0.297 3,0.5 L3,8 z M15,9 L1,9 L1,14 L15,14 z M4.445,13.055 L1.945,10.555 L2.547,9.953 L5.047,12.453 z M7.445,13.055 L4.945,10.555 L5.547,9.953 L8.047,12.453 z M12.5,13 Q12.188,13 11.914,12.883 Q11.641,12.766 11.438,12.562 Q11.234,12.359 11.117,12.086 Q11,11.812 11,11.5 Q11,11.188 11.117,10.914 Q11.234,10.641 11.438,10.438 Q11.641,10.234 11.914,10.117 Q12.188,10 12.5,10 Q12.812,10 13.086,10.117 Q13.359,10.234 13.562,10.438 Q13.766,10.641 13.883,10.914 Q14,11.188 14,11.5 Q14,11.812 13.883,12.086 Q13.766,12.359 13.562,12.562 Q13.359,12.766 13.086,12.883 Q12.812,13 12.5,13 z M12.5,11 Q12.297,11 12.148,11.148 Q12,11.297 12,11.5 Q12,11.703 12.148,11.852 Q12.297,12 12.5,12 Q12.703,12 12.852,11.852 Q13,11.703 13,11.5 Q13,11.297 12.852,11.148 Q12.703,11 12.5,11 z M9.5,12 Q9.297,12 9.148,11.852 Q9,11.703 9,11.5 Q9,11.297 9.148,11.148 Q9.297,11 9.5,11 Q9.703,11 9.852,11.148 Q10,11.297 10,11.5 Q10,11.703 9.852,11.852 Q9.703,12 9.5,12 z" fill="#afb9c3"/>
    <path d="M22.738,20.118 L19.779,20.118 L19.779,23.07 L18.805,23.07 L18.805,20.118 L15.853,20.118 L15.853,19.137 L18.805,19.137 L18.805,16.185 L19.779,16.185 L19.779,19.137 L22.738,19.137 z" fill="#FFFFFF"/>
  </g>
</svg>
