<svg xmlns="http://www.w3.org/2000/svg" width="16px" height="16px" viewBox="-12955.338 -22387.842 22.493 24">
  <defs>
    <style>
      .cls-1 {
      fill: #afb9c3;
      }
    </style>
  </defs>
  <path id="Path_421" data-name="Path 421" class="cls-1" d="M20.024,4.231,13.734.675a5.049,5.049,0,0,0-4.956,0L2.487,4.231A4.887,4.887,0,0,0,0,8.458v7.129A4.859,4.859,0,0,0,2.487,19.8l6.29,3.573a5.1,5.1,0,0,0,2.469.655,4.977,4.977,0,0,0,2.487-.655l6.29-3.573a4.842,4.842,0,0,0,2.469-4.21V8.458A4.833,4.833,0,0,0,20.024,4.231ZM9.895,20.947,3.839,17.5A2.2,2.2,0,0,1,2.7,15.587V8.458a2.2,2.2,0,0,1,1.117-1.91L9.895,3.116Zm9.913-5.36A2.2,2.2,0,0,1,18.69,17.5l-6.074,3.432V13.341h7.191Zm0-4.9H12.6V3.1L18.672,6.53a2.183,2.183,0,0,1,1.117,1.91v2.247Z" transform="translate(-12955.338 -22387.867)"/>
</svg>
