<?xml version="1.0" encoding="UTF-8"?>
<!DOCTYPE svg PUBLIC "-//W3C//DTD SVG 1.1//EN" "http://www.w3.org/Graphics/SVG/1.1/DTD/svg11.dtd">
<svg version="1.1" xmlns="http://www.w3.org/2000/svg" xmlns:xlink="http://www.w3.org/1999/xlink" x="0" y="0" width="16" height="16" viewBox="0, 0, 16, 16">
  <g id="Layer_1">
    <path d="M11.429,0 Q11.67,0 11.875,0.089 Q12.08,0.179 12.237,0.335 Q12.393,0.491 12.482,0.701 Q12.571,0.911 12.571,1.143 L12.571,16 L3.429,16 L3.429,1.143 Q3.429,0.911 3.518,0.701 Q3.607,0.491 3.763,0.335 Q3.92,0.179 4.125,0.089 Q4.33,0 4.571,0 z M11.429,1.143 L4.571,1.143 L4.571,14.857 L11.429,14.857 z M10.286,3.429 L5.714,3.429 L5.714,2.286 L10.286,2.286 z M10.286,11.429 L5.714,11.429 L5.714,10.286 L10.286,10.286 z M10.286,13.714 L5.714,13.714 L5.714,12.571 L10.286,12.571 z" fill="#afb9c3"/>
  </g>
</svg>
